<?xml version="1.0" encoding="UTF-8" standalone="no"?><!DOCTYPE svg PUBLIC "-//W3C//DTD SVG 1.1//EN" "http://www.w3.org/Graphics/SVG/1.1/DTD/svg11.dtd"><svg width="100%" height="100%" viewBox="0 0 64 64" version="1.1" xmlns="http://www.w3.org/2000/svg" xmlns:xlink="http://www.w3.org/1999/xlink" xml:space="preserve" xmlns:serif="http://www.serif.com/" style="fill-rule:evenodd;clip-rule:evenodd;stroke-linejoin:round;stroke-miterlimit:2;"><rect id="Book-QuestionMark" x="0" y="0" width="64" height="64" style="fill:none;"/><g id="Book-QuestionMark1" serif:id="Book-QuestionMark"><path d="M50.002,53c2.208,0 3.998,1.79 3.998,3.998l-0,0.002c0,1.061 -0.421,2.078 -1.172,2.828c-0.75,0.751 -1.767,1.172 -2.828,1.172l-36,-0c-1.061,0 -2.078,-0.421 -2.828,-1.172c-0.751,-0.75 -1.172,-1.767 -1.172,-2.828l-0,-50c-0,-1.061 0.421,-2.078 1.172,-2.828c0.75,-0.751 1.767,-1.172 2.828,-1.172l36,-0c1.061,-0 2.078,0.421 2.828,1.172c0.751,0.75 1.172,1.767 1.172,2.828l0,36.502c0,2.208 -1.79,3.998 -3.998,3.998l-31.32,-0c-1.528,0 -2.77,1.232 -2.77,2.75c0,1.518 1.242,2.75 2.77,2.75l31.32,-0Zm-17.422,-13.67c1.088,0 2.018,-0.386 2.791,-1.159c0.773,-0.773 1.16,-1.718 1.16,-2.835c-0,-1.088 -0.387,-2.018 -1.16,-2.791c-0.773,-0.773 -1.703,-1.16 -2.791,-1.16c-1.117,0 -2.062,0.387 -2.835,1.16c-0.773,0.773 -1.159,1.703 -1.159,2.791c-0,1.117 0.386,2.062 1.159,2.835c0.773,0.773 1.718,1.159 2.835,1.159Zm-3.049,-12.368l-0,2.061l5.84,0l0,-1.847c0,-0.572 0.229,-1.088 0.687,-1.546c0.459,-0.458 1.031,-0.887 1.718,-1.288c0.687,-0.401 1.425,-0.823 2.212,-1.267c0.787,-0.444 1.532,-0.938 2.233,-1.482c0.702,-0.544 1.274,-1.181 1.718,-1.911c0.444,-0.73 0.666,-1.582 0.666,-2.555c-0,-1.317 -0.53,-2.505 -1.589,-3.565c-1.06,-1.059 -2.513,-1.903 -4.359,-2.533c-1.847,-0.63 -3.959,-0.945 -6.335,-0.945c-2.033,-0 -3.822,0.179 -5.368,0.537c-1.546,0.358 -2.906,0.873 -4.08,1.546c-1.174,0.673 -2.248,1.481 -3.221,2.426l3.479,3.092l0.257,0.301l0.301,-0.258c0.029,-0.229 0.107,-0.429 0.236,-0.601c0.129,-0.172 0.365,-0.401 0.709,-0.687c0.945,-0.516 2.018,-0.902 3.221,-1.16c1.202,-0.257 2.591,-0.386 4.165,-0.386c1.031,-0 1.947,0.043 2.749,0.129c0.802,0.086 1.489,0.229 2.061,0.429c0.573,0.201 1.003,0.458 1.289,0.773c0.286,0.315 0.429,0.716 0.429,1.203c0,0.458 -0.222,0.894 -0.665,1.309c-0.444,0.416 -1.01,0.831 -1.697,1.246c-0.687,0.415 -1.41,0.852 -2.169,1.31c-0.758,0.458 -1.481,0.952 -2.168,1.481c-0.687,0.53 -1.246,1.138 -1.675,1.826c-0.43,0.687 -0.644,1.474 -0.644,2.362Z" style="fill:#fff;"/></g></svg>