<svg clip-rule="evenodd" fill-rule="evenodd" stroke-linejoin="round" stroke-miterlimit="2" viewBox="0 0 64 64" xmlns="http://www.w3.org/2000/svg"><path d="m0 0h64v64h-64z" fill="none"/><path d="m14.083 50.333c-6.669 0-12.083-5.414-12.083-12.083s5.414-12.083 12.083-12.083h.006l-.006-.209c0-6.784 5.508-12.291 12.292-12.291 5.372 0 9.943 3.453 11.61 8.259 1.166-.557 2.472-.863 3.848-.863 5.025 0 9.104 4.079 9.104 9.104l-.002.048c.323-.032.651-.048.982-.048 5.565 0 10.083 4.518 10.083 10.083 0 5.277-4.063 9.613-9.229 10.045v.038h-38.688zm16.516-11.271-4.805-4.805c-.63-.63-1.653-.63-2.283 0s-.63 1.652 0 2.282l7.561 7.561c.073.072.151.137.233.192l.006.005.002.001c.083.056.17.102.259.14l.013.007.021.009.014.004c.09.037.184.065.282.084l.003.001h.007c.097.02.198.029.301.029s.204-.009.301-.029h.007l.003-.001c.098-.019.192-.047.282-.084l.014-.004.021-.009.013-.007.11-.05.137-.082s.012-.008.012-.008l.002-.001.117-.087.122-.11 7.135-7.135c.63-.63.63-1.652 0-2.282s-1.653-.63-2.283 0l-4.379 4.379v-12.104c0-.89-.723-1.614-1.614-1.614s-1.614.724-1.614 1.614z"/></svg>