<?xml version="1.0" encoding="UTF-8" standalone="no"?><!DOCTYPE svg PUBLIC "-//W3C//DTD SVG 1.1//EN" "http://www.w3.org/Graphics/SVG/1.1/DTD/svg11.dtd"><svg width="100%" height="100%" viewBox="0 0 64 64" version="1.1" xmlns="http://www.w3.org/2000/svg" xmlns:xlink="http://www.w3.org/1999/xlink" xml:space="preserve" xmlns:serif="http://www.serif.com/" style="fill-rule:evenodd;clip-rule:evenodd;stroke-linejoin:round;stroke-miterlimit:2;"><rect id="Cloud-DownArrow" x="0" y="0" width="64" height="64" style="fill:none;"/><path d="M14.083,50.333c-6.669,0 -12.083,-5.414 -12.083,-12.083c-0,-6.669 5.414,-12.083 12.083,-12.083l0.006,-0l-0.006,-0.209c0,-6.784 5.508,-12.291 12.292,-12.291c5.372,-0 9.943,3.453 11.61,8.259c1.166,-0.557 2.472,-0.863 3.848,-0.863c5.025,-0 9.104,4.079 9.104,9.104l-0.002,0.048c0.323,-0.032 0.651,-0.048 0.982,-0.048c5.565,-0 10.083,4.518 10.083,10.083c-0,5.277 -4.063,9.613 -9.229,10.045l-0,0.038l-38.688,0Zm16.516,-11.271l-4.805,-4.805c-0.63,-0.63 -1.653,-0.63 -2.283,-0c-0.63,0.63 -0.63,1.652 0,2.282l7.561,7.561c0.073,0.072 0.151,0.137 0.233,0.192l0.006,0.005l0.002,0.001c0.083,0.056 0.17,0.102 0.259,0.14l0.013,0.007l0.021,0.009l0.014,0.004c0.09,0.037 0.184,0.065 0.282,0.084l0.003,0.001l0.007,0c0.097,0.02 0.198,0.029 0.301,0.029c0.103,0 0.204,-0.009 0.301,-0.029l0.007,-0l0.003,-0.001c0.098,-0.019 0.192,-0.047 0.282,-0.084l0.014,-0.004l0.021,-0.009l0.013,-0.007l0.11,-0.05l0.137,-0.082c0,0 0.012,-0.008 0.012,-0.008l0.002,-0.001l0.117,-0.087l0.122,-0.11l7.135,-7.135c0.63,-0.63 0.63,-1.652 -0,-2.282c-0.63,-0.63 -1.653,-0.63 -2.283,-0l-4.379,4.379l0,-12.104c0,-0.89 -0.723,-1.614 -1.614,-1.614c-0.891,0 -1.614,0.724 -1.614,1.614l-0,12.104Z"/></svg>