<svg clip-rule="evenodd" fill-rule="evenodd" stroke-linecap="round" stroke-linejoin="round" stroke-miterlimit="1.5" viewBox="0 0 64 64" xmlns="http://www.w3.org/2000/svg"><path d="m0 0h64v64h-64z" fill="none"/><path d="m12.402 38.815v9.983c0 1.997 1.619 3.615 3.615 3.615h31.966c1.996 0 3.615-1.618 3.615-3.615 0-4.029 0-9.983 0-9.983" fill="none" stroke="#fff" stroke-width="5.6"/><path d="m31.839 39.806-.174.009-.174-.009-.069-.003-.002-.001h-.014l-.151-.023-.075-.011-.007-.002-.019-.003-.131-.033-.08-.02-.012-.004-.02-.005-.109-.04-.092-.032-.016-.008-.016-.006-.088-.042-.105-.049s-.018-.01-.018-.01l-.011-.006-.071-.043-.116-.068s-.016-.012-.016-.012l-.006-.004-.061-.045-.122-.09s-.011-.01-.011-.01l-.001-.001-.052-.047-.129-.116-11.216-11.216c-.99-.99-.99-2.598 0-3.589.99-.99 2.598-.99 3.589 0l6.884 6.885v-19.028c0-1.4 1.137-2.537 2.537-2.537 1.401 0 2.538 1.137 2.538 2.537v19.028l7.553-7.554c.991-.991 2.599-.991 3.589 0 .99.99.99 2.598 0 3.588l-11.886 11.886-.129.116-.051.047-.002.001-.01.01-.123.09-.061.045-.006.004-.016.012-.116.068-.071.043-.011.006-.018.01-.105.049-.088.042-.016.006-.016.008-.092.032-.109.04-.019.005-.012.004-.081.02-.131.033-.019.003-.007.002-.075.011-.151.023h-.013l-.003.001z" fill="#fff"/></svg>