<?xml version="1.0" encoding="UTF-8" standalone="no"?><!DOCTYPE svg PUBLIC "-//W3C//DTD SVG 1.1//EN" "http://www.w3.org/Graphics/SVG/1.1/DTD/svg11.dtd"><svg width="100%" height="100%" viewBox="0 0 64 64" version="1.1" xmlns="http://www.w3.org/2000/svg" xmlns:xlink="http://www.w3.org/1999/xlink" xml:space="preserve" xmlns:serif="http://www.serif.com/" style="fill-rule:evenodd;clip-rule:evenodd;stroke-linecap:round;stroke-linejoin:round;stroke-miterlimit:1.5;"><rect id="Folder-Open" x="0" y="0" width="64" height="64" style="fill:none;"/><path d="M44.099,19.227c1.106,0 2.166,0.439 2.948,1.221c0.782,0.782 1.221,1.842 1.221,2.948c-0,8.346 -0,26.315 -0,26.315l-35.849,-0c-1.583,-0 -3.1,-0.629 -4.219,-1.748c-1.119,-1.119 -1.747,-2.636 -1.747,-4.218c-0,-7.277 -0,-19.416 -0,-25.981c-0,-1.207 0.479,-2.364 1.332,-3.217c0.853,-0.853 2.01,-1.332 3.216,-1.332c2.34,0 5.043,0 6.715,0c1.031,0 2.03,0.362 2.822,1.023c1.324,1.106 3.424,2.86 4.749,3.966c0.791,0.661 1.79,1.023 2.821,1.023c3.334,0 11.13,0 15.991,0Z" style="fill:none;stroke:#fff;stroke-width:5.49px;"/><path d="M60.266,31.463l-11.998,18.248l-34.255,-0c-1.499,-0 -2.877,-0.823 -3.588,-2.142c-0.712,-1.32 -0.642,-2.923 0.181,-4.176c3.467,-5.272 7.845,-11.93 7.845,-11.93l41.815,-0Z" style="fill:#fff;stroke:#fff;stroke-width:5.49px;"/></svg>