<svg clip-rule="evenodd" fill-rule="evenodd" stroke-linejoin="round" stroke-miterlimit="2" viewBox="0 0 64 64" xmlns="http://www.w3.org/2000/svg"><path d="m0 0h64v64h-64z" fill="none"/><path d="m25.329 2.401h-19.897c-1.619 0-2.932 1.313-2.932 2.932v41.909c0 1.62 1.313 2.932 2.932 2.932h32.895c1.62 0 2.932-1.312 2.932-2.932v-28.91h-15.072c-.474 0-.858-.385-.858-.859zm4.811 28.946c.457.313.731.831.731 1.385s-.274 1.072-.731 1.384c-3.275 2.235-9.722 6.634-13.34 9.102-.513.35-1.178.388-1.728.098-.549-.29-.893-.861-.893-1.482 0-4.709 0-13.496 0-18.204 0-.621.344-1.192.893-1.482.55-.29 1.215-.253 1.728.097 3.618 2.469 10.065 6.868 13.34 9.102zm-3.094-28.481v13.749h13.749c-.111-.178-.244-.343-.395-.494-2.585-2.585-10.275-10.276-12.86-12.861-.151-.151-.317-.283-.494-.394z"/><path d="m50.857 54.577-5.554-5.555c-.729-.728-1.911-.728-2.639 0s-.728 1.911 0 2.639l8.74 8.74c.084.084.174.158.27.222l.006.006.003.001c.095.065.196.119.299.163l.015.008.012.004.012.005.016.005c.104.043.213.075.326.097l.004.001.008.001c.113.022.229.033.348.033s.236-.011.348-.033l.009-.001.003-.001c.113-.022.222-.055.326-.097l.016-.005s.012-.005.012-.005l.012-.004.015-.008.127-.059.159-.094s.013-.01.013-.01l.003-.001.007-.006.128-.094.142-.128 8.247-8.248c.728-.728.728-1.91 0-2.638-.728-.729-1.911-.729-2.639 0l-5.062 5.062v-13.992c0-1.03-.836-1.866-1.866-1.866s-1.866.836-1.866 1.866z"/></svg>