<svg clip-rule="evenodd" fill-rule="evenodd" stroke-linejoin="round" stroke-miterlimit="2" viewBox="0 0 64 64" xmlns="http://www.w3.org/2000/svg"><path d="m0 0h64v64h-64z" fill="none"/><path d="m36.158 3.206h-24.587c-1.619 0-2.932 1.313-2.932 2.932v51.724c0 1.619 1.313 2.932 2.932 2.932h40.858c.778 0 1.523-.309 2.073-.859s.859-1.296.859-2.073v-35.453h-18.168c-.572 0-1.035-.463-1.035-1.034v-18.169zm6.216 35.177c.457.313.731.831.731 1.385s-.274 1.072-.731 1.384c-3.948 2.694-12.658 8.637-17.036 11.624-.513.35-1.178.388-1.727.098-.55-.291-.894-.861-.894-1.482 0-5.689 0-17.559 0-23.248 0-.621.344-1.192.894-1.482.549-.29 1.214-.253 1.727.098 4.378 2.987 13.088 8.93 17.036 11.623zm-4.147-34.664v16.621h16.621c-.101-.15-.217-.29-.346-.419-2.982-2.983-12.873-12.873-15.856-15.856-.129-.13-.269-.246-.419-.346z" fill="#fff"/></svg>