<?xml version="1.0" encoding="UTF-8" standalone="no"?><!DOCTYPE svg PUBLIC "-//W3C//DTD SVG 1.1//EN" "http://www.w3.org/Graphics/SVG/1.1/DTD/svg11.dtd"><svg width="100%" height="100%" viewBox="0 0 64 64" version="1.1" xmlns="http://www.w3.org/2000/svg" xmlns:xlink="http://www.w3.org/1999/xlink" xml:space="preserve" xmlns:serif="http://www.serif.com/" style="fill-rule:evenodd;clip-rule:evenodd;stroke-linejoin:round;stroke-miterlimit:2;"><rect id="Page-DownArrow" x="0" y="0" width="64" height="64" style="fill:none;"/><path d="M36.16,3.194l-24.599,-0c-0.778,-0 -1.524,0.308 -2.073,0.858c-0.55,0.55 -0.859,1.296 -0.859,2.074c-0,9.877 -0,41.871 -0,51.748c-0,0.778 0.309,1.524 0.859,2.074c0.549,0.55 1.295,0.858 2.073,0.858c8.399,0 32.479,0 40.878,0c0.778,0 1.524,-0.308 2.073,-0.858c0.55,-0.55 0.859,-1.296 0.859,-2.074l0,-35.469l-18.176,0c-0.572,0 -1.035,-0.463 -1.035,-1.035l-0,-18.176Zm-6.227,41.827l-5.223,-5.223c-0.684,-0.685 -1.796,-0.685 -2.481,-0c-0.685,0.685 -0.685,1.796 0,2.481l8.218,8.218c0.08,0.08 0.164,0.15 0.254,0.209l0.006,0.006l0.003,0.001c0.09,0.061 0.184,0.111 0.281,0.153l0.014,0.007l0.023,0.01l0.015,0.004c0.098,0.04 0.201,0.07 0.307,0.091l0.003,0.001l0.008,0.001c0.106,0.021 0.215,0.031 0.327,0.031c0.112,0 0.221,-0.01 0.327,-0.031l0.008,-0.001l0.003,-0.001c0.106,-0.021 0.209,-0.051 0.307,-0.091l0.015,-0.004l0.023,-0.01l0.014,-0.007l0.119,-0.056l0.15,-0.088c-0,0 0.012,-0.009 0.012,-0.009l0.003,-0.001l0.006,-0.006l0.12,-0.088l0.134,-0.121l7.755,-7.755c0.685,-0.685 0.685,-1.796 -0,-2.481c-0.685,-0.685 -1.797,-0.685 -2.481,-0l-4.76,4.76l-0,-13.157c-0,-0.968 -0.787,-1.754 -1.755,-1.754c-0.968,-0 -1.755,0.786 -1.755,1.754l0,13.157Zm8.297,-41.314l0,16.628l16.628,-0c-0.101,-0.15 -0.216,-0.29 -0.345,-0.419c-2.984,-2.984 -12.88,-12.88 -15.864,-15.864c-0.129,-0.129 -0.269,-0.245 -0.419,-0.345Z" style="fill:#c5e29b;"/></svg>