<?xml version="1.0" encoding="UTF-8" standalone="no"?><!DOCTYPE svg PUBLIC "-//W3C//DTD SVG 1.1//EN" "http://www.w3.org/Graphics/SVG/1.1/DTD/svg11.dtd"><svg width="100%" height="100%" viewBox="0 0 64 64" version="1.1" xmlns="http://www.w3.org/2000/svg" xmlns:xlink="http://www.w3.org/1999/xlink" xml:space="preserve" xmlns:serif="http://www.serif.com/" style="fill-rule:evenodd;clip-rule:evenodd;stroke-linejoin:round;stroke-miterlimit:2;"><rect id="Page-Play-DownArrow" x="0" y="0" width="64" height="64" style="fill:none;"/><path d="M25.329,2.401l-19.897,0c-1.619,0 -2.932,1.313 -2.932,2.932c-0,8.546 -0,33.364 -0,41.909c0,1.62 1.313,2.932 2.932,2.932c7.202,0 25.694,0 32.895,0c1.62,0 2.932,-1.312 2.932,-2.932l0,-28.91l-15.072,-0c-0.474,-0 -0.858,-0.385 -0.858,-0.859l-0,-15.072Zm4.811,28.946c0.457,0.313 0.731,0.831 0.731,1.385c-0,0.554 -0.274,1.072 -0.731,1.384c-3.275,2.235 -9.722,6.634 -13.34,9.102c-0.513,0.35 -1.178,0.388 -1.728,0.098c-0.549,-0.29 -0.893,-0.861 -0.893,-1.482c0,-4.709 0,-13.496 0,-18.204c0,-0.621 0.344,-1.192 0.893,-1.482c0.55,-0.29 1.215,-0.253 1.728,0.097c3.618,2.469 10.065,6.868 13.34,9.102Zm-3.094,-28.481l-0,13.749l13.749,-0c-0.111,-0.178 -0.244,-0.343 -0.395,-0.494c-2.585,-2.585 -10.275,-10.276 -12.86,-12.861c-0.151,-0.151 -0.317,-0.283 -0.494,-0.394Z"/><path d="M50.857,54.577l-5.554,-5.555c-0.729,-0.728 -1.911,-0.728 -2.639,0c-0.728,0.728 -0.728,1.911 -0,2.639l8.74,8.74c0.084,0.084 0.174,0.158 0.27,0.222l0.006,0.006l0.003,0.001c0.095,0.065 0.196,0.119 0.299,0.163l0.015,0.008l0.012,0.004l0.012,0.005l0.016,0.005c0.104,0.043 0.213,0.075 0.326,0.097l0.004,0.001l0.008,0.001c0.113,0.022 0.229,0.033 0.348,0.033c0.119,0 0.236,-0.011 0.348,-0.033l0.009,-0.001l0.003,-0.001c0.113,-0.022 0.222,-0.055 0.326,-0.097l0.016,-0.005c0,0 0.012,-0.005 0.012,-0.005l0.012,-0.004l0.015,-0.008l0.127,-0.059l0.159,-0.094c-0,-0 0.013,-0.01 0.013,-0.01l0.003,-0.001l0.007,-0.006l0.128,-0.094l0.142,-0.128l8.247,-8.248c0.728,-0.728 0.728,-1.91 -0,-2.638c-0.728,-0.729 -1.911,-0.729 -2.639,-0l-5.062,5.062l0,-13.992c0,-1.03 -0.836,-1.866 -1.866,-1.866c-1.03,0 -1.866,0.836 -1.866,1.866l0,13.992Z"/></svg>