<?xml version="1.0" encoding="UTF-8" standalone="no"?><!DOCTYPE svg PUBLIC "-//W3C//DTD SVG 1.1//EN" "http://www.w3.org/Graphics/SVG/1.1/DTD/svg11.dtd"><svg width="100%" height="100%" viewBox="0 0 64 64" version="1.1" xmlns="http://www.w3.org/2000/svg" xmlns:xlink="http://www.w3.org/1999/xlink" xml:space="preserve" xmlns:serif="http://www.serif.com/" style="fill-rule:evenodd;clip-rule:evenodd;stroke-linejoin:round;stroke-miterlimit:2;"><rect id="Page-Play" x="0" y="0" width="64" height="64" style="fill:none;"/><path d="M36.158,3.206l-24.587,0c-1.619,0 -2.932,1.313 -2.932,2.932l-0,51.724c-0,1.619 1.313,2.932 2.932,2.932c8.396,-0 32.462,-0 40.858,-0c0.778,-0 1.523,-0.309 2.073,-0.859c0.55,-0.55 0.859,-1.296 0.859,-2.073l0,-35.453l-18.168,0c-0.572,0 -1.035,-0.463 -1.035,-1.034l-0,-18.169Zm6.216,35.177c0.457,0.313 0.731,0.831 0.731,1.385c0,0.554 -0.274,1.072 -0.731,1.384c-3.948,2.694 -12.658,8.637 -17.036,11.624c-0.513,0.35 -1.178,0.388 -1.727,0.098c-0.55,-0.291 -0.894,-0.861 -0.894,-1.482c0,-5.689 0,-17.559 0,-23.248c0,-0.621 0.344,-1.192 0.894,-1.482c0.549,-0.29 1.214,-0.253 1.727,0.098c4.378,2.987 13.088,8.93 17.036,11.623Zm-4.147,-34.664l0,16.621l16.621,-0c-0.101,-0.15 -0.217,-0.29 -0.346,-0.419c-2.982,-2.983 -12.873,-12.873 -15.856,-15.856c-0.129,-0.13 -0.269,-0.246 -0.419,-0.346Z" style="fill:#4c8962;"/></svg>