<?xml version="1.0" encoding="UTF-8" standalone="no"?><!DOCTYPE svg PUBLIC "-//W3C//DTD SVG 1.1//EN" "http://www.w3.org/Graphics/SVG/1.1/DTD/svg11.dtd"><svg width="100%" height="100%" viewBox="0 0 34 64" version="1.1" xmlns="http://www.w3.org/2000/svg" xmlns:xlink="http://www.w3.org/1999/xlink" xml:space="preserve" xmlns:serif="http://www.serif.com/" style="fill-rule:evenodd;clip-rule:evenodd;stroke-linejoin:round;stroke-miterlimit:2;"><rect id="Play" x="0" y="0" width="34" height="64" style="fill:none;"/><path d="M29.411,29.391c0.862,0.588 1.378,1.565 1.378,2.609c0,1.044 -0.516,2.021 -1.378,2.609c-5.41,3.691 -15.302,10.441 -21.262,14.507c-0.967,0.66 -2.22,0.731 -3.255,0.184c-1.035,-0.547 -1.683,-1.622 -1.683,-2.793c-0,-7.766 -0,-21.248 -0,-29.014c-0,-1.171 0.648,-2.246 1.683,-2.793c1.035,-0.547 2.288,-0.476 3.255,0.184c5.96,4.066 15.852,10.816 21.262,14.507Z" style="fill:#4c8962;"/></svg>