<?xml version="1.0" encoding="UTF-8" standalone="no"?><!DOCTYPE svg PUBLIC "-//W3C//DTD SVG 1.1//EN" "http://www.w3.org/Graphics/SVG/1.1/DTD/svg11.dtd"><svg width="100%" height="100%" viewBox="0 0 64 64" version="1.1" xmlns="http://www.w3.org/2000/svg" xmlns:xlink="http://www.w3.org/1999/xlink" xml:space="preserve" xmlns:serif="http://www.serif.com/" style="fill-rule:evenodd;clip-rule:evenodd;stroke-linecap:round;stroke-linejoin:round;stroke-miterlimit:1.5;"><rect id="UpArrow-from-Tray" x="0" y="0" width="64" height="64" style="fill:none;"/><path d="M12.402,42.815l0,9.983c0,1.997 1.619,3.615 3.615,3.615c7.464,0 24.502,0 31.966,0c1.996,0 3.615,-1.618 3.615,-3.615c-0,-4.029 -0,-9.983 -0,-9.983" style="fill:none;stroke:#c5e29b;stroke-width:5.6px;"/><path d="M31.839,13.595l-0.174,-0.008l-0.174,0.008l-0.069,0.004l-0.002,0l-0.014,0.001l-0.151,0.023l-0.075,0.011l-0.007,0.001l-0.019,0.003l-0.131,0.034l-0.08,0.02l-0.012,0.004l-0.02,0.005l-0.109,0.04l-0.092,0.032l-0.016,0.007l-0.016,0.006l-0.088,0.043l-0.105,0.048c-0,0 -0.018,0.011 -0.018,0.011l-0.011,0.005l-0.071,0.043l-0.116,0.069c-0,-0 -0.016,0.012 -0.016,0.012l-0.006,0.003l-0.061,0.046l-0.122,0.09c-0,-0 -0.011,0.009 -0.011,0.009l-0.001,0.001l-0.052,0.047l-0.129,0.117l-11.216,11.216c-0.99,0.99 -0.99,2.598 0,3.588c0.99,0.99 2.598,0.99 3.589,0l6.884,-6.884l-0,19.027c-0,1.401 1.137,2.538 2.537,2.538c1.401,-0 2.538,-1.137 2.538,-2.538l-0,-19.027l7.553,7.554c0.991,0.99 2.599,0.99 3.589,-0c0.99,-0.99 0.99,-2.598 -0,-3.589l-11.886,-11.885l-0.129,-0.117l-0.051,-0.047l-0.002,-0.001l-0.01,-0.009l-0.123,-0.09l-0.061,-0.046l-0.006,-0.003l-0.016,-0.012l-0.116,-0.069l-0.071,-0.043l-0.011,-0.005l-0.018,-0.011l-0.105,-0.048l-0.088,-0.043l-0.016,-0.006l-0.016,-0.007l-0.092,-0.032l-0.109,-0.04l-0.019,-0.005l-0.012,-0.004l-0.081,-0.02l-0.131,-0.034l-0.019,-0.003l-0.007,-0.001l-0.075,-0.011l-0.151,-0.023l-0.013,-0.001l-0.003,-0l-0.069,-0.004Z" style="fill:#c5e29b;"/></svg>