<svg clip-rule="evenodd" fill-rule="evenodd" stroke-linecap="round" stroke-linejoin="round" stroke-miterlimit="1.5" viewBox="0 0 64 64" xmlns="http://www.w3.org/2000/svg"><path d="m0 0h64v64h-64z" fill="none"/><path d="m12.402 42.815v9.983c0 1.997 1.619 3.615 3.615 3.615h31.966c1.996 0 3.615-1.618 3.615-3.615 0-4.029 0-9.983 0-9.983" fill="none" stroke="#4c8962" stroke-width="5.6"/><path d="m31.839 13.595-.174-.008-.174.008-.069.004h-.002l-.014.001-.151.023-.075.011-.007.001-.019.003-.131.034-.08.02-.012.004-.02.005-.109.04-.092.032-.016.007-.016.006-.088.043-.105.048s-.018.011-.018.011l-.011.005-.071.043-.116.069s-.016.012-.016.012l-.006.003-.061.046-.122.09s-.011.009-.011.009l-.001.001-.052.047-.129.117-11.216 11.216c-.99.99-.99 2.598 0 3.588s2.598.99 3.589 0l6.884-6.884v19.027c0 1.401 1.137 2.538 2.537 2.538 1.401 0 2.538-1.137 2.538-2.538v-19.027l7.553 7.554c.991.99 2.599.99 3.589 0s.99-2.598 0-3.589l-11.886-11.885-.129-.117-.051-.047-.002-.001-.01-.009-.123-.09-.061-.046-.006-.003-.016-.012-.116-.069-.071-.043-.011-.005-.018-.011-.105-.048-.088-.043-.016-.006-.016-.007-.092-.032-.109-.04-.019-.005-.012-.004-.081-.02-.131-.034-.019-.003-.007-.001-.075-.011-.151-.023-.013-.001h-.003z" fill="#4c8962"/></svg>